<svg height="512pt" viewBox="-18 0 512 512" width="512pt" xmlns="http://www.w3.org/2000/svg"><path d="m273.65625 14.652344v482.695312c.085938 3.535156-1.921875 6.789063-5.121094 8.296875-19.234375 8.472657-41.144531 8.472657-60.378906 0-3.203125-1.507812-5.210938-4.761719-5.121094-8.296875v-482.695312c-.089844-3.535156 1.917969-6.789063 5.121094-8.296875 19.234375-8.472657 41.144531-8.472657 60.378906 0 3.199219 1.507812 5.207032 4.761719 5.121094 8.296875zm0 0" fill="#b19046"/><path d="m176.550781 273.65625c-4.867187-.015625-8.8125-3.960938-8.828125-8.828125v-176.550781c-.023437-29.242188-23.722656-52.945313-52.964844-52.96875h-61.792968c-29.242188.023437-52.9414065 23.726562-52.964844 52.96875v335.445312c.0234375 29.242188 23.722656 52.945313 52.964844 52.96875h167.726562v-203.035156zm-141.242187-22.070312c0-12.1875 9.882812-22.070313 22.070312-22.070313s22.070313 9.882813 22.070313 22.070313-9.882813 22.070312-22.070313 22.070312c-12.1875-.003906-22.0625-9.882812-22.070312-22.070312zm48.554687 189.792968c-12.191406 0-22.070312-9.878906-22.070312-22.070312 0-12.1875 9.878906-22.066406 22.070312-22.066406 12.1875 0 22.066407 9.878906 22.066407 22.066406-.003907 12.1875-9.882813 22.066406-22.066407 22.070312zm0-326.621094c-12.191406 0-22.070312-9.878906-22.070312-22.066406 0-12.191406 9.878906-22.070312 22.070312-22.070312 12.1875 0 22.066407 9.878906 22.066407 22.070312-.003907 12.183594-9.882813 22.0625-22.066407 22.066406zm0 0" fill="#f3d55b"/><path d="m423.722656 35.308594h-167.722656v203.035156h44.136719c4.871093.015625 8.816406 3.960938 8.828125 8.828125v176.550781c.023437 29.242188 23.722656 52.945313 52.964844 52.96875h61.792968c29.242188-.023437 52.945313-23.726562 52.96875-52.96875v-335.445312c-.023437-29.242188-23.726562-52.945313-52.96875-52.96875zm-30.894531 35.3125c12.1875 0 22.070313 9.878906 22.070313 22.070312 0 12.1875-9.882813 22.066406-22.070313 22.066406s-22.070313-9.878906-22.070313-22.066406c.003907-12.1875 9.882813-22.066406 22.070313-22.070312zm0 370.757812c-12.1875 0-22.070313-9.878906-22.070313-22.070312 0-12.1875 9.882813-22.066406 22.070313-22.066406s22.070313 9.878906 22.070313 22.066406c-.007813 12.1875-9.882813 22.066406-22.070313 22.070312zm26.480469-158.894531c-12.1875 0-22.066406-9.882813-22.066406-22.070313s9.878906-22.070312 22.066406-22.070312c12.191406 0 22.070312 9.882812 22.070312 22.070312-.003906 12.1875-9.882812 22.0625-22.070312 22.070313zm0 0" fill="#f3d55b"/><g fill="#e4c05c"><path d="m203.035156 273.65625h70.621094v203.035156h-70.621094zm0 0"/><path d="m203.035156 35.308594h70.621094v203.035156h-70.621094zm0 0"/></g></svg>